<mxfile host="app.diagrams.net" modified="2023-09-17T09:32:30.849Z" agent="Mozilla/5.0 (Windows NT 10.0; Win64; x64) AppleWebKit/537.36 (KHTML, like Gecko) Chrome/116.0.0.0 Safari/537.36 Edg/116.0.1938.81" etag="6Jy-Hyt_M9rU0kPAK4Mg" version="21.3.4" type="github">
  <diagram id="wFE0QG_FPsp0jaGvCLVb" name="Page-1">
    <mxGraphModel dx="979" dy="686" grid="1" gridSize="10" guides="1" tooltips="1" connect="1" arrows="1" fold="1" page="1" pageScale="1" pageWidth="850" pageHeight="1100" math="0" shadow="0">
      <root>
        <mxCell id="0" />
        <mxCell id="1" parent="0" />
        <mxCell id="VAAedVfZn5i6a3jvHifd-9" value="架构图" style="swimlane;" vertex="1" parent="1">
          <mxGeometry x="140" y="120" width="580" height="620" as="geometry">
            <mxRectangle x="150" y="270" width="80" height="30" as="alternateBounds" />
          </mxGeometry>
        </mxCell>
        <mxCell id="VAAedVfZn5i6a3jvHifd-19" style="edgeStyle=orthogonalEdgeStyle;rounded=0;orthogonalLoop=1;jettySize=auto;html=1;exitX=0.75;exitY=1;exitDx=0;exitDy=0;entryX=0.75;entryY=0;entryDx=0;entryDy=0;" edge="1" parent="VAAedVfZn5i6a3jvHifd-9" source="VAAedVfZn5i6a3jvHifd-11" target="VAAedVfZn5i6a3jvHifd-14">
          <mxGeometry relative="1" as="geometry" />
        </mxCell>
        <mxCell id="VAAedVfZn5i6a3jvHifd-11" value="表现层" style="swimlane;" vertex="1" parent="VAAedVfZn5i6a3jvHifd-9">
          <mxGeometry x="90" y="50" width="235" height="100" as="geometry" />
        </mxCell>
        <mxCell id="VAAedVfZn5i6a3jvHifd-12" value="" style="verticalLabelPosition=bottom;verticalAlign=top;html=1;shape=mxgraph.basic.rect;fillColor2=none;strokeWidth=1;size=20;indent=5;" vertex="1" parent="VAAedVfZn5i6a3jvHifd-11">
          <mxGeometry x="57.5" y="30" width="120" height="60" as="geometry" />
        </mxCell>
        <mxCell id="VAAedVfZn5i6a3jvHifd-13" value="ImGUI" style="text;html=1;strokeColor=none;fillColor=none;align=center;verticalAlign=middle;whiteSpace=wrap;rounded=0;" vertex="1" parent="VAAedVfZn5i6a3jvHifd-11">
          <mxGeometry x="87.5" y="45" width="60" height="30" as="geometry" />
        </mxCell>
        <mxCell id="VAAedVfZn5i6a3jvHifd-18" style="edgeStyle=orthogonalEdgeStyle;rounded=0;orthogonalLoop=1;jettySize=auto;html=1;exitX=0.25;exitY=0;exitDx=0;exitDy=0;entryX=0.25;entryY=1;entryDx=0;entryDy=0;" edge="1" parent="VAAedVfZn5i6a3jvHifd-9" source="VAAedVfZn5i6a3jvHifd-14" target="VAAedVfZn5i6a3jvHifd-11">
          <mxGeometry relative="1" as="geometry" />
        </mxCell>
        <mxCell id="VAAedVfZn5i6a3jvHifd-37" style="edgeStyle=orthogonalEdgeStyle;rounded=0;orthogonalLoop=1;jettySize=auto;html=1;exitX=0.75;exitY=1;exitDx=0;exitDy=0;entryX=0.75;entryY=0;entryDx=0;entryDy=0;" edge="1" parent="VAAedVfZn5i6a3jvHifd-9" source="VAAedVfZn5i6a3jvHifd-14" target="VAAedVfZn5i6a3jvHifd-20">
          <mxGeometry relative="1" as="geometry" />
        </mxCell>
        <mxCell id="VAAedVfZn5i6a3jvHifd-14" value="网络传输" style="swimlane;" vertex="1" parent="VAAedVfZn5i6a3jvHifd-9">
          <mxGeometry x="90" y="175" width="235" height="100" as="geometry" />
        </mxCell>
        <mxCell id="VAAedVfZn5i6a3jvHifd-15" value="" style="verticalLabelPosition=bottom;verticalAlign=top;html=1;shape=mxgraph.basic.rect;fillColor2=none;strokeWidth=1;size=20;indent=5;" vertex="1" parent="VAAedVfZn5i6a3jvHifd-14">
          <mxGeometry x="57.5" y="30" width="120" height="60" as="geometry" />
        </mxCell>
        <mxCell id="VAAedVfZn5i6a3jvHifd-16" value="Socket" style="text;html=1;strokeColor=none;fillColor=none;align=center;verticalAlign=middle;whiteSpace=wrap;rounded=0;" vertex="1" parent="VAAedVfZn5i6a3jvHifd-14">
          <mxGeometry x="87.5" y="45" width="62.5" height="35" as="geometry" />
        </mxCell>
        <mxCell id="VAAedVfZn5i6a3jvHifd-36" style="edgeStyle=orthogonalEdgeStyle;rounded=0;orthogonalLoop=1;jettySize=auto;html=1;exitX=0.25;exitY=0;exitDx=0;exitDy=0;" edge="1" parent="VAAedVfZn5i6a3jvHifd-9" source="VAAedVfZn5i6a3jvHifd-20">
          <mxGeometry relative="1" as="geometry">
            <mxPoint x="150" y="280" as="targetPoint" />
          </mxGeometry>
        </mxCell>
        <mxCell id="VAAedVfZn5i6a3jvHifd-20" value="服务层" style="swimlane;" vertex="1" parent="VAAedVfZn5i6a3jvHifd-9">
          <mxGeometry x="90" y="310" width="240" height="200" as="geometry" />
        </mxCell>
        <mxCell id="VAAedVfZn5i6a3jvHifd-21" value="" style="verticalLabelPosition=bottom;verticalAlign=top;html=1;shape=mxgraph.basic.rect;fillColor2=none;strokeWidth=1;size=20;indent=5;" vertex="1" parent="VAAedVfZn5i6a3jvHifd-20">
          <mxGeometry x="57.5" y="30" width="120" height="60" as="geometry" />
        </mxCell>
        <mxCell id="VAAedVfZn5i6a3jvHifd-22" value="CPU采样" style="text;html=1;strokeColor=none;fillColor=none;align=center;verticalAlign=middle;whiteSpace=wrap;rounded=0;" vertex="1" parent="VAAedVfZn5i6a3jvHifd-20">
          <mxGeometry x="87.5" y="45" width="62.5" height="35" as="geometry" />
        </mxCell>
        <mxCell id="VAAedVfZn5i6a3jvHifd-23" value="" style="verticalLabelPosition=bottom;verticalAlign=top;html=1;shape=mxgraph.basic.rect;fillColor2=none;strokeWidth=1;size=20;indent=5;" vertex="1" parent="VAAedVfZn5i6a3jvHifd-20">
          <mxGeometry x="57.5" y="120" width="120" height="60" as="geometry" />
        </mxCell>
        <mxCell id="VAAedVfZn5i6a3jvHifd-24" value="内存记录" style="text;html=1;strokeColor=none;fillColor=none;align=center;verticalAlign=middle;whiteSpace=wrap;rounded=0;" vertex="1" parent="VAAedVfZn5i6a3jvHifd-20">
          <mxGeometry x="86.25" y="132.5" width="62.5" height="35" as="geometry" />
        </mxCell>
        <mxCell id="VAAedVfZn5i6a3jvHifd-25" value="数据层" style="swimlane;" vertex="1" parent="VAAedVfZn5i6a3jvHifd-9">
          <mxGeometry x="350" y="50" width="190" height="460" as="geometry" />
        </mxCell>
        <mxCell id="VAAedVfZn5i6a3jvHifd-28" value="" style="verticalLabelPosition=bottom;verticalAlign=top;html=1;shape=mxgraph.basic.rect;fillColor2=none;strokeWidth=1;size=20;indent=5;" vertex="1" parent="VAAedVfZn5i6a3jvHifd-25">
          <mxGeometry x="35" y="65" width="120" height="60" as="geometry" />
        </mxCell>
        <mxCell id="VAAedVfZn5i6a3jvHifd-29" value="" style="verticalLabelPosition=bottom;verticalAlign=top;html=1;shape=mxgraph.basic.rect;fillColor2=none;strokeWidth=1;size=20;indent=5;" vertex="1" parent="VAAedVfZn5i6a3jvHifd-25">
          <mxGeometry x="35" y="160" width="120" height="60" as="geometry" />
        </mxCell>
        <mxCell id="VAAedVfZn5i6a3jvHifd-30" value="" style="verticalLabelPosition=bottom;verticalAlign=top;html=1;shape=mxgraph.basic.rect;fillColor2=none;strokeWidth=1;size=20;indent=5;" vertex="1" parent="VAAedVfZn5i6a3jvHifd-25">
          <mxGeometry x="35" y="260" width="120" height="60" as="geometry" />
        </mxCell>
        <mxCell id="VAAedVfZn5i6a3jvHifd-31" value="" style="verticalLabelPosition=bottom;verticalAlign=top;html=1;shape=mxgraph.basic.rect;fillColor2=none;strokeWidth=1;size=20;indent=5;" vertex="1" parent="VAAedVfZn5i6a3jvHifd-25">
          <mxGeometry x="35" y="350" width="120" height="60" as="geometry" />
        </mxCell>
        <mxCell id="VAAedVfZn5i6a3jvHifd-32" value="CPU数据" style="text;html=1;strokeColor=none;fillColor=none;align=center;verticalAlign=middle;whiteSpace=wrap;rounded=0;" vertex="1" parent="VAAedVfZn5i6a3jvHifd-25">
          <mxGeometry x="65" y="80" width="60" height="30" as="geometry" />
        </mxCell>
        <mxCell id="VAAedVfZn5i6a3jvHifd-33" value="CPU数据" style="text;html=1;strokeColor=none;fillColor=none;align=center;verticalAlign=middle;whiteSpace=wrap;rounded=0;" vertex="1" parent="VAAedVfZn5i6a3jvHifd-25">
          <mxGeometry x="65" y="175" width="60" height="30" as="geometry" />
        </mxCell>
        <mxCell id="VAAedVfZn5i6a3jvHifd-34" value="CPU数据" style="text;html=1;strokeColor=none;fillColor=none;align=center;verticalAlign=middle;whiteSpace=wrap;rounded=0;" vertex="1" parent="VAAedVfZn5i6a3jvHifd-25">
          <mxGeometry x="65" y="275" width="60" height="30" as="geometry" />
        </mxCell>
        <mxCell id="VAAedVfZn5i6a3jvHifd-35" value="CPU数据" style="text;html=1;strokeColor=none;fillColor=none;align=center;verticalAlign=middle;whiteSpace=wrap;rounded=0;" vertex="1" parent="VAAedVfZn5i6a3jvHifd-25">
          <mxGeometry x="65" y="365" width="60" height="30" as="geometry" />
        </mxCell>
      </root>
    </mxGraphModel>
  </diagram>
</mxfile>
